inDegrees=no
num_controls=7
num_derivatives=13
num_iterations=143
num_multipliers=7
num_parameters=0
num_slacks=7
num_states=26
objective=5.005370
objective_accelerations=0.372174
objective_balance=0.034204
objective_effort=0.176777
objective_height=4.399571
objective_ligament=0.022644
solver_duration=1596.135576
status=Solve_Succeeded
success=true
DataType=double
version=3
OpenSimVersion=4.4-2022-07-23-0e9fedc
endheader
time	/jointset/ground_pelvis/pelvis_tilt/value	/jointset/ground_pelvis/pelvis_tx/value	/jointset/ground_pelvis/pelvis_ty/value	/jointset/hip_l/hip_flexion_l/value	/jointset/hip_l/hip_adduction_l/value	/jointset/hip_l/hip_rotation_l/value	/jointset/back/lumbar_extension/value	/jointset/patellofemoral_l/patellar_flexion_l/value	/jointset/knee_l/knee_flexion_l/value	/jointset/knee_l/knee_adduction_l/value	/jointset/knee_l/knee_rotation_l/value	/jointset/ankle_l/ankle_angle_l/value	/jointset/subtalar_l/subtalar_angle_l/value	/jointset/ground_pelvis/pelvis_tilt/speed	/jointset/ground_pelvis/pelvis_tx/speed	/jointset/ground_pelvis/pelvis_ty/speed	/jointset/hip_l/hip_flexion_l/speed	/jointset/hip_l/hip_adduction_l/speed	/jointset/hip_l/hip_rotation_l/speed	/jointset/back/lumbar_extension/speed	/jointset/patellofemoral_l/patellar_flexion_l/speed	/jointset/knee_l/knee_flexion_l/speed	/jointset/knee_l/knee_adduction_l/speed	/jointset/knee_l/knee_rotation_l/speed	/jointset/ankle_l/ankle_angle_l/speed	/jointset/subtalar_l/subtalar_angle_l/speed	/forceset/tau_hip_flexion_l	/forceset/tau_hip_adduction_l	/forceset/tau_hip_rotation_l	/forceset/tau_knee_flexion_l	/forceset/tau_ankle_angle_l	/forceset/tau_subtalar_angle_l	/forceset/tau_lumbar_extension	lambda_cid13_p0	lambda_cid13_p1	lambda_cid13_p2	lambda_cid13_p3	lambda_cid13_p4	lambda_cid13_p5	lambda_cid14_p0	/jointset/ground_pelvis/pelvis_tilt/accel	/jointset/ground_pelvis/pelvis_tx/accel	/jointset/ground_pelvis/pelvis_ty/accel	/jointset/hip_l/hip_flexion_l/accel	/jointset/hip_l/hip_adduction_l/accel	/jointset/hip_l/hip_rotation_l/accel	/jointset/back/lumbar_extension/accel	/jointset/patellofemoral_l/patellar_flexion_l/accel	/jointset/knee_l/knee_flexion_l/accel	/jointset/knee_l/knee_adduction_l/accel	/jointset/knee_l/knee_rotation_l/accel	/jointset/ankle_l/ankle_angle_l/accel	/jointset/subtalar_l/subtalar_angle_l/accel	gamma_cid13_p0	gamma_cid13_p1	gamma_cid13_p2	gamma_cid13_p3	gamma_cid13_p4	gamma_cid13_p5	gamma_cid14_p0
1	-0.204656210268962	0.07396695993303122	0.7124710680742503	1.008810239809228	-0.5034803988737979	-0.0753825556552206	-0.2617990953942809	1.158274885412763	1.15827488541279	-0.1673202258233067	-0.1745325991166043	0.436315837482558	0.08617630185933621	-0.01699978705496317	0.008650256497288539	-1.767842391332246e-05	0.002097140334515953	-0.002835841284631432	0.001755694937955137	-7.954792835647342e-06	-0.002569220528769435	-0.002569220528769481	-0.007150369622254123	1.383861850591174e-06	0.01090986694253904	0.004028411389891735	-0.1306649313059011	0.06695727180646738	-0.009483010652193584	-0.3141485378512204	-0.09884078713325591	0.02677970078818104	0.1498426766711578	-68.14959090984529	-2.562265590393066	3.344344406621544	12.6076818085263	-600.4914818094845	-70.01078347699799	-9.910156237710529	0.637543543317488	-0.02829672283857747	1.13735819294695	-3.549920723668795	0.3759543484493261	-2.048225228078793	-0.01410189708983278	-4.270961716656871	-4.270961716656879	-0.03748978692483389	-0.007015545562795196	-1.857119846673233	-0.8303642211149093	1.677711265198105e-09	1.005544178484354e-08	-4.66916672321974e-09	3.056704662927317e-09	-9.04640070759085e-10	1.668878765212871e-08	6.376696812292447e-10
1.01	-0.2047949856480819	0.0740520175890524	0.7125276157308806	1.008654849494008	-0.5034895777309788	-0.07546817714044431	-0.261799146472564	1.158036109605533	1.158036109605556	-0.1673919335162075	-0.1745325853551159	0.4363322970388193	0.08617589674930959	-0.01075514819604023	0.008360679065333658	0.01132411566374714	-0.03316801461739095	0.001000828528144072	-0.01887684570945244	-2.319789456275181e-06	-0.04518049000546803	-0.04518049000546924	-0.007190818123044963	6.623670591970527e-07	-0.007618865892665179	-0.00410823306590583	-0.1307207481860696	0.06704610201633864	-0.009469614779150738	-0.3138208799898738	-0.09908246035930848	0.02679100872300996	0.1498682871070216	-68.21535558780316	-2.559952513958071	3.348877133105748	12.61310213587122	-600.3418188917486	-69.98708214454948	-9.921041102821704	0.6179449961007252	-0.02937709555141957	1.132124342842524	-3.513734864181896	0.387634404177537	-2.070299551156788	0.007887359550094642	-4.255391164202876	-4.255391164203034	0.01272940848384967	0.003298201064520413	-1.850886569828071	-0.8051370596113585	-3.051046282025983e-09	-4.95270408052953e-10	2.222434437150782e-08	2.525734957643462e-09	-7.735476108594205e-09	3.466994907516829e-09	-3.766697274796044e-09
1.02	-0.2048713104508303	0.07413416170231846	0.7126974881936211	1.00814702323262	-0.5034603676687351	-0.07576003024575992	-0.261799142968648	1.157371384783332	1.157371384783347	-0.1674640353360766	-0.1745325990780583	0.4361634419531162	0.08609416069436504	-0.00450967178026886	0.008067547946260401	0.02264728279810034	-0.06839004889850453	0.004841942600356353	-0.03949062908026262	2.96163386245879e-06	-0.08775902352322759	-0.08775902352322926	-0.007229195018235371	-4.113027658250289e-06	-0.02615306144323221	-0.01223777759367119	-0.1307765650662515	0.06713493222620094	-0.009456218906019252	-0.3134932221285339	-0.09932413358536395	0.02680231665781959	0.149893897542875	-68.2902289024363	-2.557297897721015	3.3547862744041	12.64544605542122	-600.3239400364686	-69.96249966974661	-9.949949872360616	0.6377110546871723	-0.02900746026225633	1.133632802285496	-3.541296589510128	0.3768432003366784	-2.044473772759325	-0.01417261310184244	-4.264414524869066	-4.264414524868927	-0.03707546580474434	-0.007826325548020091	-1.858212389745802	-0.82894423550848	-7.765385557169844e-09	-1.027863714136198e-08	4.781128991894387e-08	2.520260336397339e-09	-1.449014883680983e-08	-8.520375865643336e-09	-8.00411278361243e-09
1.03	-0.2048852563078161	0.07421332000455923	0.7129804635764239	1.007287361372704	-0.5033926938026623	-0.07625784714622573	-0.2617991396105854	1.156281019095248	1.156281019095242	-0.1675365544973458	-0.1745326580078982	0.4358091234683888	0.08593116839111695	0.00171212562260584	0.007759798588370625	0.03394111797974324	-0.1035175410075675	0.008697061049371721	-0.06006429064620078	-6.975503651306506e-06	-0.1303104509984944	-0.1303104509984953	-0.007275465518463491	-6.571235591050069e-06	-0.04472087356699202	-0.02035830003031451	-0.130657677776806	0.06719494258923522	-0.009457743892321888	-0.3130261326392415	-0.09945076296182545	0.02680718815092629	0.1497688500692601	-68.31527350643917	-2.563821685184907	3.365870684956302	12.68175546047497	-600.0667351247677	-69.93412080181804	-9.996876932491288	0.6131572991382159	-0.03230525660772339	1.126253218967553	-3.494759144866655	0.3904711394150849	-2.062553035951515	0.004892910306614195	-4.249954921041044	-4.24995492104105	0.01146941366731388	0.003723167683999561	-1.857602500098935	-0.8032542542602658	-1.24795777070884e-08	-2.005417381896093e-08	7.338490316487693e-08	2.520147909886297e-09	-2.124404438839668e-08	-2.049515049623766e-08	-1.223982470623281e-08
